<!DOCTYPE svg PUBLIC "-//W3C//DTD SVG 1.1//EN" "http://www.w3.org/Graphics/SVG/1.1/DTD/svg11.dtd">
<!-- Uploaded to: SVG Repo, www.svgrepo.com, Transformed by: SVG Repo Mixer Tools -->
<svg fill="#ffffff" version="1.1" id="Capa_1" xmlns="http://www.w3.org/2000/svg" xmlns:xlink="http://www.w3.org/1999/xlink" width="800px" height="800px" viewBox="0 0 507.131 507.131" xml:space="preserve" stroke="#ffffff">
<g id="SVGRepo_bgCarrier" stroke-width="0"/>
<g id="SVGRepo_tracerCarrier" stroke-linecap="round" stroke-linejoin="round"/>
<g id="SVGRepo_iconCarrier"> <g> <g> <path d="M284.132,476.568v-24.865c0-0.467,0.377-0.844,0.844-0.844h1.832c2.133,0,3.867-1.736,3.867-3.867 c0-2.133-1.734-3.869-3.867-3.869h-1.832c-0.467,0-0.844-0.377-0.844-0.844V292.828c0-0.273-0.012-0.545-0.021-0.816l-0.01-0.234 c-0.029-0.252,0.104-0.516,0.307-0.684c11.285-9.29,17.756-22.968,17.756-37.525c0-14.559-6.471-28.237-17.756-37.528 c-0.203-0.167-0.332-0.395-0.307-0.683l0.01-0.233c0.01-0.271,0.021-0.543,0.021-0.815V64.33c0-0.466,0.377-0.844,0.844-0.844 h8.113c2.133,0,3.867-1.735,3.867-3.868c0-2.132-1.734-3.868-3.867-3.868h-8.113c-0.467,0-0.844-0.378-0.844-0.844V30.565 C284.132,13.711,270.419,0,253.566,0s-30.565,13.711-30.565,30.565v24.342c0,0.466-0.377,0.844-0.844,0.844h-8.113 c-2.133,0-3.868,1.735-3.868,3.868c0,2.133,1.735,3.868,3.868,3.868h8.113c0.466,0,0.844,0.378,0.844,0.844v149.976 c0,0.271,0.011,0.544,0.021,0.815l0.009,0.233c0,0.011,0,0.021,0,0.031c0,0.251-0.112,0.491-0.307,0.652 c-11.284,9.29-17.756,22.969-17.756,37.528c0,14.559,6.472,28.236,17.756,37.525c0.204,0.168,0.316,0.428,0.307,0.684 l-0.009,0.234c-0.011,0.271-0.021,0.543-0.021,0.816v149.451c0,0.467-0.377,0.844-0.844,0.844h-1.833 c-2.133,0-3.867,1.736-3.867,3.869c0,2.131,1.734,3.867,3.867,3.867h1.833c0.466,0,0.844,0.377,0.844,0.844v24.865 c0,16.855,13.712,30.564,30.565,30.564C270.419,507.133,284.132,493.422,284.132,476.568z M231.579,55.751 c-0.467,0-0.844-0.378-0.844-0.844V30.565c0-12.588,10.242-22.83,22.83-22.83c12.588,0,22.831,10.242,22.831,22.83v24.342 c0,0.466-0.377,0.844-0.844,0.844H231.579z M231.955,210.055c-0.262,0.131-0.572,0.116-0.821-0.037 c-0.248-0.154-0.399-0.425-0.399-0.717V64.33c0-0.466,0.377-0.844,0.844-0.844h43.975c0.465,0,0.844,0.378,0.844,0.844v144.971 c0,0.292-0.152,0.563-0.4,0.717c-0.248,0.153-0.559,0.168-0.82,0.037c-6.77-3.374-14.039-5.085-21.608-5.085 C245.997,204.969,238.726,206.681,231.955,210.055z M212.703,253.566c0-22.531,18.332-40.861,40.864-40.861 c22.53,0,40.86,18.331,40.86,40.861c0,22.531-18.33,40.862-40.86,40.862C231.035,294.429,212.703,276.098,212.703,253.566z M258.276,443.123c-0.467,0-0.844-0.377-0.844-0.844v-19.367c0-2.133-1.734-3.867-3.868-3.867c-2.132,0-3.868,1.734-3.868,3.867 v19.367c0,0.467-0.377,0.844-0.844,0.844h-17.275c-0.467,0-0.844-0.377-0.844-0.844V297.832c0-0.292,0.151-0.562,0.399-0.717 c0.249-0.153,0.56-0.17,0.821-0.037c6.77,3.375,14.041,5.087,21.612,5.087c7.57,0,14.841-1.712,21.609-5.087 c0.26-0.133,0.57-0.116,0.818,0.037c0.248,0.152,0.4,0.425,0.4,0.717v144.447c0,0.467-0.377,0.844-0.844,0.844H258.276z M230.735,476.568v-24.865c0-0.467,0.377-0.844,0.844-0.844h43.975c0.465,0,0.844,0.377,0.844,0.844v24.865 c0,12.588-10.242,22.83-22.832,22.83C240.977,499.398,230.735,489.156,230.735,476.568z"/> <path d="M258.743,87.883c0-2.855-2.322-5.178-5.178-5.178c-2.854,0-5.176,2.323-5.176,5.178s2.322,5.178,5.176,5.178 C256.421,93.062,258.743,90.739,258.743,87.883z"/> <path d="M258.743,116.414c0-2.855-2.322-5.178-5.178-5.178c-2.854,0-5.176,2.322-5.176,5.178s2.322,5.179,5.176,5.179 C256.421,121.592,258.743,119.269,258.743,116.414z"/> <path d="M258.585,146.217c0.701-2.768-0.979-5.59-3.748-6.292c-2.766-0.701-5.588,0.979-6.29,3.748 c-0.701,2.767,0.98,5.588,3.748,6.289C255.062,150.664,257.884,148.984,258.585,146.217z"/> <path d="M256.295,260.234c0.175-0.176,0.341-0.377,0.491-0.602c0.021-0.031,0.041-0.076,0.062-0.117l0.137-0.258 c0.054-0.092,0.107-0.184,0.147-0.279c0.033-0.082,0.054-0.156,0.074-0.23l0.099-0.329c0.018-0.056,0.038-0.108,0.049-0.167 c0.053-0.26,0.078-0.514,0.078-0.76v-26.696c0-2.133-1.734-3.869-3.868-3.869c-2.132,0-3.868,1.735-3.868,3.869v24.747 c0,0.225-0.089,0.438-0.247,0.598l-12.361,12.36c-0.731,0.729-1.134,1.7-1.134,2.733s0.403,2.004,1.134,2.734 c0.731,0.729,1.703,1.133,2.735,1.133c1.032,0,2.003-0.402,2.734-1.133L256.295,260.234z"/> </g> </g> </g>
</svg>